# xmcd CD database file
#
# Track frame offsets:
#	150
#	25235
#	51377
#	88069
#	103278
#	142473
#	183149
#	201257
#
# Disc length: 2979 seconds
#
# Revision: 5
# Processed by: cddbd v1.4PL0 Copyright (c) Steve Scherf et al.
# Submitted via: CDex 1.40Beta8
#
DISCID=790ba108
DTITLE=CAMARÓN DE LA ISLA - París 1987
DYEAR=2001
DGENRE=Folklore
TTITLE0=Tus ojillos negros
TTITLE1=Sonidos negros
TTITLE2=Pañuelo a rayas
TTITLE3=Como el agua
TTITLE4=Yo pienso como el ciprés
TTITLE5=Pañuelo a rayas 2
TTITLE6=Más duro que el acero
TTITLE7=Tiritando de frío
EXTD=©Narada Media\n4650 N. Port Washington Road\nMilwaukee, WI 53212-1063\nEXTD=nUSA\n\nTel. 414-9nUSA\n\nTel. 414-961-8350 YEAR: 2001 ID3G: 115
EXTT0=Guarânia
EXTT1=Guarânia
EXTT2=Xote
EXTT3=Bolero
EXTT4=french musette waltz
EXTT5=1930's one-step
EXTT6=Balanço
EXTT7=Argentinian waltz
PLAYORDER=
